<svg xmlns="http://www.w3.org/2000/svg" width="90px" height="24px" viewBox="0 0 90 24" version="1.1">
  <path
    d="M83.2583455,0.07808 L76.5688909,0.07808 L76.5688909,23.78368 L89.1868909,23.78368 L89.1868909,18.35008 L83.2583455,18.35008 L83.2583455,0.07808 Z M56.6870727,23.78368 L70.6223455,23.78368 L70.6223455,18.35008 L63.3748909,18.35008 L63.3748909,14.41408 L70.6223455,14.41408 L70.6223455,9.22048 L63.3748909,9.22048 L63.3748909,5.27808 L70.6223455,5.27808 L70.6223455,0.07808 L56.6870727,0.07808 L56.6870727,23.78368 Z M43.3850727,16.63968 C42.3541636,17.77728 40.8683455,18.35008 38.9619818,18.35008 L38.4285273,18.35008 L38.4285273,5.43328 L38.9619818,5.43328 C42.8565273,5.43328 44.9167091,7.67648 44.9167091,11.91008 C44.9167091,13.93248 44.4045273,15.51808 43.3850727,16.63968 L43.3850727,16.63968 Z M47.8179818,2.92928 C46.6528909,1.96608 45.2701636,1.23648 43.6992545,0.74848 C42.1152545,0.25248 40.4101636,-0.00032 38.6428909,-0.00032 L32.2578,-0.00032 L32.2578,23.78368 L38.6428909,23.78368 C40.8536182,23.78368 42.7927091,23.46528 44.4258,22.83648 C46.0408909,22.21408 47.3990727,21.35008 48.4512545,20.26688 C49.5067091,19.18208 50.3003455,17.90208 50.8223455,16.44448 C51.3378,14.97408 51.6078,13.38048 51.6078,11.71488 C51.6078,9.75488 51.2592545,8.02368 50.5785273,6.56448 C49.8994364,5.10848 48.9667091,3.88448 47.8179818,2.92928 L47.8179818,2.92928 Z M19.4041636,23.78368 L26.1738,23.78368 L26.1738,0.07808 L19.4041636,0.07808 L19.4041636,23.78368 Z M0.00016363636,23.78368 L6.68798182,23.78368 L6.68798182,14.41408 L11.2763455,14.41408 L13.9370727,9.22048 L6.68798182,9.22048 L6.68798182,5.27808 L13.9370727,5.27808 L13.9370727,0.07808 L0.00016363636,0.07808 L0.00016363636,23.78368 Z"
    fill="#111"
  ></path>
</svg>